HIERARCHY
ROOT Hips
{
    OFFSET 0.000000 0.000000 0.000000
    CHANNELS 6 Xposition Yposition Zposition Zrotation Xrotation Yrotation
    JOINT Spine
    {
        OFFSET -0.000000 8.505030 0.000000
        CHANNELS 3 Zrotation Xrotation Yrotation
        JOINT Spine1
        {
            OFFSET -0.000000 25.070629 0.000000
            CHANNELS 3 Zrotation Xrotation Yrotation
            JOINT Neck
            {
                OFFSET -0.000000 24.967667 2.269788
                CHANNELS 3 Zrotation Xrotation Yrotation
                JOINT Head
                {
                    OFFSET -0.000000 14.520781 -2.074397
                    CHANNELS 3 Zrotation Xrotation Yrotation
                    End Site
                    {
                        OFFSET -0.000000 25.929966 0.000000
                    }
                }
            }
            JOINT LeftShoulder
            {
                OFFSET 4.117346 22.983784 -0.389865
                CHANNELS 3 Zrotation Xrotation Yrotation
                JOINT LeftArm
                {
                    OFFSET 11.957758 0.000000 0.000000
                    CHANNELS 3 Zrotation Xrotation Yrotation
                    JOINT LeftForeArm
                    {
                        OFFSET 31.907600 0.000000 0.000000
                        CHANNELS 3 Zrotation Xrotation Yrotation
                        JOINT LeftHand
                        {
                            OFFSET 28.601147 0.000000 0.000000
                            CHANNELS 3 Zrotation Xrotation Yrotation
                            End Site
                            {
                                OFFSET 15.557981 0.000000 0.000000
                            }
                        }
                    }
                }
            }
            JOINT RightShoulder
            {
                OFFSET -4.061940 22.983784 -0.389865
                CHANNELS 3 Zrotation Xrotation Yrotation
                JOINT RightArm
                {
                    OFFSET -11.957758 0.000000 0.000000
                    CHANNELS 3 Zrotation Xrotation Yrotation
                    JOINT RightForeArm
                    {
                        OFFSET -31.907600 0.000000 0.000000
                        CHANNELS 3 Zrotation Xrotation Yrotation
                        JOINT RightHand
                        {
                            OFFSET -28.601147 0.000000 0.000000
                            CHANNELS 3 Zrotation Xrotation Yrotation
                            End Site
                            {
                                OFFSET -15.557981 0.000000 0.000000
                            }
                        }
                    }
                }
            }
        }
    }
    JOINT LeftUpLeg
    {
        OFFSET 10.371986 0.000000 0.000000
        CHANNELS 3 Zrotation Xrotation Yrotation
        JOINT LeftLeg
        {
            OFFSET -0.000000 -42.486427 0.000000
            CHANNELS 3 Zrotation Xrotation Yrotation
            JOINT LeftFoot
            {
                OFFSET -0.000000 -48.322342 0.000000
                CHANNELS 3 Zrotation Xrotation Yrotation
                JOINT LeftToeBase
                {
                    OFFSET -0.000000 -6.741791 15.557981
                    CHANNELS 3 Zrotation Xrotation Yrotation
                    End Site
                    {
                        OFFSET -0.000000 0.000000 4.148795
                    }
                }
            }
        }
    }
    JOINT RightUpLeg
    {
        OFFSET -10.371986 0.000000 0.000000
        CHANNELS 3 Zrotation Xrotation Yrotation
        JOINT RightLeg
        {
            OFFSET -0.000000 -42.486427 0.000000
            CHANNELS 3 Zrotation Xrotation Yrotation
            JOINT RightFoot
            {
                OFFSET -0.000000 -48.322342 0.000000
                CHANNELS 3 Zrotation Xrotation Yrotation
                JOINT RightToeBase
                {
                    OFFSET -0.000000 -6.741791 15.557981
                    CHANNELS 3 Zrotation Xrotation Yrotation
                    End Site
                    {
                        OFFSET -0.000000 0.000000 4.148795
                    }
                }
            }
        }
    }
}
MOTION
Frames:    9
Frame Time:    0.008333
61.864616    134.844666    83.041679    -11.239229    0.667649    89.370605    -0.886037    -6.442450    1.908544    4.697617    3.456980    1.816571    -9.187356    31.297449    -7.402908    2.900138    20.852938    -9.211234    3.432894    3.035062    -7.513336    -71.419479    42.421741    -10.298272    8.708053    -16.202343    -12.325475    -16.553043    -13.596981    -12.014392    -15.227362    6.487440    -14.583351    65.657738    66.727524    21.891159    -8.739097    -15.608932    7.918865    19.522594    -14.857807    1.002086    10.515104    -48.166759    7.777414    -18.985207    67.175117    23.571590    0.870030    -19.887976    5.670751    0.000000    0.000000    0.000000    3.801888    -24.691450    0.908427    0.071127    36.124958    4.158221    -15.185643    -23.613100    -16.759609    0.000000    0.000000    0.000000    
62.041439    134.788925    83.066231    -11.225990    0.676946    89.326630    -0.843893    -6.442803    1.938815    4.707304    3.628793    1.837093    -9.432823    30.940142    -7.417428    3.129892    21.548000    -9.258782    3.446049    2.974099    -7.293116    -71.436378    42.529884    -10.295209    8.559683    -16.144011    -12.413508    -16.913616    -13.471763    -12.271798    -15.372583    6.590207    -14.788713    65.307510    66.832390    22.454765    -8.702594    -15.573048    7.806534    19.517702    -14.833184    0.998529    10.795410    -48.826069    7.828056    -20.233074    67.023636    24.234287    1.073552    -19.546400    5.980949    0.000000    0.000000    0.000000    3.879960    -24.783499    0.952565    -0.028503    36.498119    4.165298    -15.073481    -23.751268    -16.743128    0.000000    0.000000    0.000000    
62.214172    134.728592    83.083809    -11.258665    0.757360    89.260292    -0.940003    -6.519048    2.018197    4.820837    3.794003    1.911943    -9.538568    30.726397    -7.478487    3.278094    22.065937    -9.340351    3.432898    2.975726    -7.231130    -71.396545    42.475094    -10.365966    8.333001    -16.042356    -12.469942    -17.269793    -13.302534    -12.594679    -15.473286    6.540178    -14.969707    65.341415    66.994621    22.472984    -8.797029    -15.613513    7.667646    19.631395    -14.884283    0.954449    10.947091    -49.476200    7.888577    -21.087067    66.631454    25.045895    1.042554    -18.822859    5.946992    0.000000    0.000000    0.000000    3.898675    -24.905088    1.064348    -0.099758    36.850380    4.200417    -15.079198    -23.905291    -16.848215    0.000000    0.000000    0.000000    
62.443913    134.682159    83.096840    -11.186935    0.770822    89.274231    -0.910855    -6.406002    1.985721    4.815984    3.678542    1.881957    -9.667930    30.899214    -7.434876    3.355927    22.128361    -9.337295    3.410683    3.065641    -7.162946    -71.557205    42.591209    -10.125131    8.302659    -16.007977    -12.469399    -17.533514    -13.195862    -12.898048    -15.445694    6.645613    -14.913624    65.309830    66.946915    22.474506    -8.846101    -15.413872    7.445271    19.950705    -14.627833    1.348087    11.081454    -49.865746    7.876359    -21.619614    66.089111    25.290119    0.759070    -18.032986    5.880363    0.000000    0.000000    0.000000    3.941581    -24.820065    1.158837    -0.123616    37.091560    4.107434    -14.699450    -24.199961    -16.770069    0.000000    0.000000    0.000000    
62.647324    134.634659    83.101204    -11.175421    0.857964    89.252541    -1.005750    -6.401471    2.000710    4.912771    3.754719    1.895842    -9.816433    30.899107    -7.499432    3.461232    22.126207    -9.432092    3.408368    3.006820    -7.068033    -71.662567    42.428730    -10.022545    8.049353    -15.815921    -12.526305    -17.800957    -12.981209    -12.982955    -15.603092    6.586901    -14.989385    65.578163    67.022163    22.255150    -8.829704    -15.598097    7.464267    19.718069    -14.839016    1.205613    11.025425    -50.340508    7.775710    -21.743301    65.250504    25.725611    0.496889    -16.677662    5.562819    0.000000    0.000000    0.000000    3.921660    -24.838844    1.305637    -0.129413    37.386543    4.072163    -14.849003    -24.299623    -16.997917    0.000000    0.000000    0.000000    
62.880943    134.584961    83.111702    -11.196246    0.902097    89.275650    -1.035573    -6.483799    1.971368    4.940824    3.871796    1.862903    -9.893207    30.769943    -7.490211    3.527010    22.366390    -9.432115    3.412912    2.963038    -6.858968    -71.726837    42.497952    -9.943859    7.899872    -15.732903    -12.510200    -18.115761    -12.853853    -13.139434    -15.645344    6.547805    -15.094237    65.655853    66.971497    22.169180    -8.764841    -15.567547    7.465245    19.654133    -14.823547    1.142972    10.971392    -50.726593    7.827248    -21.219879    64.479240    25.412493    0.565766    -15.175236    5.171350    0.000000    0.000000    0.000000    3.908494    -24.894110    1.567290    0.034075    37.727924    3.815517    -14.803094    -24.465151    -17.117872    0.000000    0.000000    0.000000    
63.115646    134.528656    83.126328    -11.188816    0.931423    89.279526    -1.024539    -6.460399    1.935794    4.936765    3.829377    1.828479    -9.998323    30.835791    -7.481704    3.547732    22.389336    -9.447287    3.386769    2.957056    -6.689669    -71.787384    42.437660    -9.747930    7.641373    -15.580709    -12.576932    -18.248079    -12.702519    -13.172776    -15.741734    6.543933    -15.111466    65.926262    66.932533    21.976894    -8.750293    -15.573767    7.392074    19.467367    -14.872259    0.936470    10.997685    -50.989594    7.837114    -20.847094    63.384842    25.129852    0.378119    -13.484799    4.900997    0.000000    0.000000    0.000000    4.062098    -24.819038    1.316638    -0.529096    37.861843    3.799649    -14.212099    -24.975170    -16.557583    0.000000    0.000000    0.000000    
63.346966    134.475296    83.129333    -11.186035    0.971895    89.278511    -1.047925    -6.497309    1.932467    4.961684    3.913432    1.822324    -10.071123    30.596561    -7.500458    3.629825    22.869211    -9.473783    3.437753    2.884408    -6.583755    -71.946114    42.421234    -9.563794    7.462948    -15.439320    -12.642762    -18.372393    -12.566465    -13.132218    -15.832343    6.518289    -15.249823    66.142914    66.900475    21.778885    -8.806105    -15.472054    7.398830    19.774748    -14.742121    1.064446    10.936749    -51.175083    7.799824    -20.240545    62.067013    24.920959    -0.445678    -11.418944    4.400800    0.000000    0.000000    0.000000    4.006120    -24.824692    1.615477    -0.247051    38.169682    3.596079    -14.598526    -24.946796    -16.888826    0.000000    0.000000    0.000000    
63.600243    134.414642    83.126808    -11.153293    1.013449    89.281380    -1.063359    -6.462673    1.912099    4.946759    3.861583    1.805269    -10.065463    30.767418    -7.556785    3.660035    22.705431    -9.545831    3.489653    2.923720    -6.497429    -72.021706    42.299843    -9.408906    7.187253    -15.251335    -12.737465    -18.496351    -12.394680    -13.077718    -15.885434    6.544497    -15.280644    66.389305    66.815842    21.516529    -8.808353    -15.419534    7.426400    19.793478    -14.689137    1.051879    10.807252    -51.241104    7.795872    -19.047691    60.696846    23.836927    -0.923793    -9.187663    3.897554    0.000000    0.000000    0.000000    3.946807    -24.865456    1.870560    -0.001127    38.610069    3.546843    -14.343870    -25.204256    -17.106560    0.000000    0.000000    0.000000    
